<?xml version="1.0" encoding="UTF-8"?>
<svg id="_レイヤー_2" data-name="レイヤー 2" xmlns="http://www.w3.org/2000/svg" viewBox="0 0 320 320">
  <defs>
    <style>
      .cls-1 {
        opacity: .2;
      }

      .cls-1, .cls-2, .cls-3 {
        fill: #fff;
      }

      .cls-4 {
        fill: none;
      }

      .cls-3 {
        opacity: .4;
      }
    </style>
  </defs>
  <g id="_レイヤー_2-2" data-name="レイヤー 2">
    <path class="cls-2" d="M204.59,155.66l-67.31-45.48c-1.61-1.08-3.67-1.2-5.39-.29-1.71.91-2.78,2.68-2.78,4.62v90.96c0,1.94,1.06,3.71,2.78,4.62.77.41,1.62.61,2.46.61,1.02,0,2.05-.3,2.93-.9l67.31-45.48c1.44-.97,2.3-2.6,2.3-4.34s-.86-3.36-2.3-4.34Z"/>
    <path class="cls-3" d="M99.79,210.72c-.84,0-1.68-.2-2.46-.61-1.71-.91-2.78-2.68-2.78-4.62v-90.96c0-1.94,1.06-3.71,2.78-4.62,1.71-.91,3.78-.8,5.39.29l67.31,45.48c1.44.97,2.3,2.6,2.3,4.34s-.86,3.36-2.3,4.34l-67.31,45.48c-.88.6-1.9.9-2.93.9ZM100.22,115.34v89.33l66.1-44.66-66.1-44.66Z"/>
    <path class="cls-1" d="M65.24,210.72c-.84,0-1.68-.2-2.46-.61-1.71-.91-2.78-2.68-2.78-4.62v-90.96c0-1.94,1.06-3.71,2.78-4.62,1.71-.91,3.78-.8,5.39.28l67.31,45.48c1.44.97,2.3,2.6,2.3,4.34s-.86,3.36-2.3,4.34l-67.31,45.48c-.88.6-1.9.9-2.93.9ZM65.67,115.34v89.33l66.1-44.66-66.1-44.66Z"/>
    <g>
      <path class="cls-2" d="M63.25,157.73c1.71,0,3.14-1.32,3.23-3.03,2.76-49.2,43.64-88.39,93.52-88.39s90.75,39.19,93.52,88.39c.1,1.71,1.53,3.03,3.23,3.03h0c1.88,0,3.35-1.59,3.24-3.46-2.98-52.57-46.69-94.42-99.99-94.42s-97.01,41.85-99.99,94.42c-.11,1.87,1.37,3.46,3.24,3.46h0Z"/>
      <path class="cls-2" d="M154.7,253.53c-47.45-2.66-85.56-40.77-88.22-88.22-.1-1.7-1.52-3.02-3.22-3.02h-.03c-1.87,0-3.34,1.58-3.23,3.44,2.87,50.68,43.59,91.37,94.27,94.24,1.86.11,3.44-1.36,3.44-3.23h0c0-1.7-1.32-3.12-3.02-3.22Z"/>
      <path class="cls-2" d="M222.34,229.83c-15.34,13.71-35.19,22.47-57.04,23.7-1.7.1-3.02,1.52-3.02,3.22h0c0,1.86,1.58,3.34,3.44,3.23,23.31-1.32,44.51-10.66,60.89-25.28,1.39-1.24,1.46-3.39.14-4.71h0c-1.2-1.2-3.14-1.28-4.4-.15Z"/>
      <path class="cls-2" d="M244.33,200.67c-3.83,7.9-8.72,15.19-14.5,21.67-1.13,1.27-1.06,3.21.14,4.41h0c1.32,1.32,3.48,1.25,4.73-.15,6.15-6.9,11.36-14.65,15.44-23.05.82-1.69.07-3.71-1.67-4.43h-.01c-1.57-.65-3.39.01-4.13,1.54Z"/>
      <path class="cls-2" d="M250.66,183.45c-.65,2.52-1.4,5.01-2.25,7.44-.56,1.61.25,3.37,1.83,4.02h0c1.72.71,3.7-.17,4.31-1.93.9-2.57,1.69-5.2,2.38-7.86.47-1.81-.68-3.64-2.51-4.01h0c-1.67-.33-3.33.68-3.76,2.33Z"/>
      <circle class="cls-2" cx="255.93" cy="173.48" r="3.23"/>
    </g>
    <rect class="cls-4" width="320" height="320"/>
  </g>
</svg>