<?xml version="1.0" encoding="UTF-8"?>
<svg id="_レイヤー_2" data-name="レイヤー 2" xmlns="http://www.w3.org/2000/svg" viewBox="0 0 607.85 21.82">
  <defs>
    <style>
      .cls-1 {
        fill: #fff;
      }
    </style>
  </defs>
  <g id="_レイヤー_2-2" data-name="レイヤー 2">
    <g>
      <path class="cls-1" d="M42.83,0c2,0,3.63,1.63,3.63,3.63v16.52c0,.92-.75,1.67-1.67,1.67s-1.67-.75-1.67-1.67V3.63c0-.16-.13-.29-.29-.29-.08,0-.15.03-.2.08l-11.68,11.68c-4.25,4.25-11.18,4.25-15.43,0L3.84,3.43c-.05-.05-.13-.08-.2-.08-.16,0-.29.13-.29.29v16.52c0,.92-.75,1.67-1.67,1.67s-1.67-.75-1.67-1.67V3.63C0,1.63,1.63,0,3.63,0c.97,0,1.88.38,2.57,1.06l11.68,11.68c1.42,1.42,3.32,2.2,5.35,2.2s3.93-.78,5.35-2.2L40.26,1.06c.69-.69,1.6-1.06,2.57-1.06h0Z"/>
      <path class="cls-1" d="M95.26,10.34c.16,3.01-.91,5.88-2.99,8.07-2.06,2.17-4.94,3.41-7.91,3.41h-23.16c-3.03,0-5.96-1.29-8.03-3.54-2.06-2.24-3.1-5.27-2.84-8.3.23-2.74,1.5-5.27,3.56-7.13,2.05-1.84,4.69-2.85,7.44-2.85h22.89c5.89,0,10.73,4.54,11.03,10.34h0ZM91.92,10.51c-.21-4.02-3.59-7.17-7.69-7.17h-22.89c-3.97,0-7.34,3.04-7.67,6.92-.18,2.13.52,4.18,1.97,5.76,1.44,1.56,3.46,2.46,5.56,2.46h23.16c2.09,0,4.03-.84,5.48-2.37,1.45-1.52,2.18-3.51,2.07-5.6Z"/>
      <path class="cls-1" d="M137.7,1.67c0,.92-.75,1.67-1.67,1.67h-39.13c-.92,0-1.67-.75-1.67-1.67s.75-1.67,1.67-1.67h39.13c.92,0,1.67.75,1.67,1.67ZM118.14,10.91v9.24c0,.92-.75,1.67-1.67,1.67s-1.67-.75-1.67-1.67v-9.24c0-.92.75-1.67,1.67-1.67s1.67.75,1.67,1.67Z"/>
      <path class="cls-1" d="M141.83,0c.92,0,1.67.75,1.67,1.67v3.22c0,.92-.75,1.67-1.67,1.67s-1.67-.75-1.67-1.67V1.67c0-.92.75-1.67,1.67-1.67h0ZM143.5,10.91v9.24c0,.92-.75,1.67-1.67,1.67s-1.67-.75-1.67-1.67v-9.24c0-.92.75-1.67,1.67-1.67s1.67.75,1.67,1.67Z"/>
      <path class="cls-1" d="M189.15,3.54c2.06,2.24,3.1,5.27,2.84,8.3-.23,2.74-1.5,5.27-3.56,7.13-2.05,1.84-4.69,2.85-7.44,2.85h-22.89c-5.89,0-10.73-4.54-11.03-10.34-.16-3.01.91-5.88,2.99-8.07,2.06-2.17,4.94-3.41,7.91-3.41h4.3c.92,0,1.67.75,1.67,1.67s-.75,1.67-1.67,1.67h-4.3c-2.09,0-4.03.84-5.48,2.37-1.45,1.52-2.18,3.51-2.07,5.6.21,4.02,3.59,7.17,7.69,7.17h22.89c3.97,0,7.34-3.04,7.67-6.92.18-2.13-.52-4.18-1.97-5.76-1.44-1.56-3.46-2.46-5.56-2.46h-4.3c-.92,0-1.67-.75-1.67-1.67s.75-1.67,1.67-1.67h4.3c3.03,0,5.96,1.29,8.03,3.54h0ZM167.86,10.91V1.67c0-.92.75-1.67,1.67-1.67s1.67.75,1.67,1.67v9.24c0,.92-.75,1.67-1.67,1.67s-1.67-.75-1.67-1.67Z"/>
      <path class="cls-1" d="M237.86,10.91v9.24c0,.92-.75,1.67-1.67,1.67s-1.67-.75-1.67-1.67v-9.24c0-4.17-3.39-7.57-7.56-7.57h-20.65c-4.17,0-7.56,3.39-7.56,7.57v9.24c0,.92-.75,1.67-1.67,1.67s-1.67-.75-1.67-1.67v-9.24c0-6.02,4.9-10.91,10.91-10.91h20.65c6.02,0,10.91,4.89,10.91,10.91Z"/>
      <path class="cls-1" d="M307.05,10.91v9.24c0,.92-.75,1.67-1.67,1.67s-1.67-.75-1.67-1.67v-9.24c0-4.17-3.39-7.56-7.56-7.56h-20.65c-4.17,0-7.56,3.39-7.56,7.57v9.24c0,.92-.75,1.67-1.67,1.67s-1.67-.75-1.67-1.67v-9.24c0-6.02,4.9-10.91,10.91-10.91h20.65c6.02,0,10.91,4.89,10.91,10.91ZM297.26,10.91c0,.92-.75,1.67-1.67,1.67h-19.57c-.92,0-1.67-.75-1.67-1.67s.75-1.67,1.67-1.67h19.57c.92,0,1.67.75,1.67,1.67Z"/>
      <path class="cls-1" d="M353.41,10.91v9.24c0,.92-.75,1.67-1.67,1.67s-1.67-.75-1.67-1.67v-9.24c0-4.17-3.39-7.57-7.56-7.57h-20.65c-4.17,0-7.56,3.39-7.56,7.57v9.24c0,.92-.75,1.67-1.67,1.67s-1.67-.75-1.67-1.67v-9.24c0-6.02,4.9-10.91,10.91-10.91h20.65c6.02,0,10.91,4.89,10.91,10.91Z"/>
      <path class="cls-1" d="M399.78,10.91v9.24c0,.92-.75,1.67-1.67,1.67s-1.67-.75-1.67-1.67v-9.24c0-4.17-3.39-7.56-7.56-7.56h-20.65c-4.17,0-7.56,3.39-7.56,7.57v9.24c0,.92-.75,1.67-1.67,1.67s-1.67-.75-1.67-1.67v-9.24c0-6.02,4.9-10.91,10.91-10.91h20.65c6.02,0,10.91,4.89,10.91,10.91ZM390,10.91c0,.92-.75,1.67-1.67,1.67h-19.57c-.92,0-1.67-.75-1.67-1.67s.75-1.67,1.67-1.67h19.57c.92,0,1.67.75,1.67,1.67Z"/>
      <path class="cls-1" d="M424.91,18.48c.92,0,1.67.75,1.67,1.67s-.75,1.67-1.67,1.67h-10.33c-6.02,0-10.91-4.89-10.91-10.91V1.67c0-.92.75-1.67,1.67-1.67s1.67.75,1.67,1.67v9.24c0,4.17,3.39,7.56,7.56,7.56h10.33Z"/>
      <path class="cls-1" d="M464.64,9.24c3.47,0,6.29,2.82,6.29,6.29s-2.82,6.29-6.29,6.29h-34.51c-.92,0-1.67-.75-1.67-1.67s.75-1.67,1.67-1.67h34.51c1.62,0,2.95-1.32,2.95-2.95s-1.32-2.95-2.95-2.95h-25.27c-6.02,0-10.91-4.89-10.91-10.91,0-.92.75-1.67,1.67-1.67s1.67.75,1.67,1.67c0,4.17,3.39,7.56,7.56,7.56h16.82c2.03,0,3.93-.78,5.35-2.2l6.54-6.54c.65-.65,1.71-.65,2.37,0,.65.65.65,1.71,0,2.37l-6.38,6.38h.58Z"/>
      <path class="cls-1" d="M516.58,20.15c0,.92-.75,1.67-1.67,1.67h-34.51c-3.47,0-6.29-2.82-6.29-6.29s2.82-6.29,6.29-6.29h29.89c1.62,0,2.95-1.32,2.95-2.95s-1.32-2.95-2.95-2.95h-34.51c-.92,0-1.67-.75-1.67-1.67s.75-1.67,1.67-1.67h34.51c3.47,0,6.29,2.82,6.29,6.29s-2.82,6.29-6.29,6.29h-29.89c-1.62,0-2.95,1.32-2.95,2.95s1.32,2.95,2.95,2.95h34.51c.92,0,1.67.75,1.67,1.67Z"/>
      <path class="cls-1" d="M523.41,15.53c0,1.62,1.32,2.95,2.95,2.95h34.51c.92,0,1.67.75,1.67,1.67s-.75,1.67-1.67,1.67h-34.51c-3.47,0-6.29-2.82-6.29-6.29,0-1.82.78-3.47,2.03-4.62-1.24-1.15-2.03-2.79-2.03-4.62,0-3.47,2.82-6.29,6.29-6.29h34.51c.92,0,1.67.75,1.67,1.67s-.75,1.67-1.67,1.67h-34.51c-1.62,0-2.95,1.32-2.95,2.95s1.32,2.95,2.95,2.95h34.51c.92,0,1.67.75,1.67,1.67s-.75,1.67-1.67,1.67h-34.51c-1.62,0-2.95,1.32-2.95,2.95Z"/>
      <path class="cls-1" d="M600.98,12.58l6.38,6.38c.65.65.65,1.71,0,2.37-.33.33-.75.49-1.18.49s-.86-.16-1.18-.49l-6.54-6.54c-1.42-1.42-3.32-2.2-5.35-2.2h-26.05c-.92,0-1.67-.75-1.67-1.67s.75-1.67,1.67-1.67h34.51c1.62,0,2.95-1.32,2.95-2.95s-1.32-2.95-2.95-2.95h-34.51c-.92,0-1.67-.75-1.67-1.67s.75-1.67,1.67-1.67h34.51c3.47,0,6.29,2.82,6.29,6.29s-2.82,6.29-6.29,6.29h-.58Z"/>
    </g>
  </g>
</svg>